<svg viewBox="0 0 31 33" fill="none" xmlns="http://www.w3.org/2000/svg">
<g clip-path="url(#clip0_54_809)">
<path d="M15.2308 27.521C11.4701 27.4187 7.69251 25.4745 5.70207 24.3234C5.24618 24.0676 3.98717 26.193 5.70206 27.521C9.00534 30.0792 14.3324 30.2071 15.2308 30.2071C16.3742 30.2071 23.2349 29.8234 24.8865 27.5211C26.1291 25.7889 24.7594 24.5792 24.5053 24.5792C22.9808 25.5172 18.9914 27.6234 15.2308 27.521Z" fill="#FF4040" stroke="#FF4040"/>
<path d="M15.9931 25.9861C12.2324 25.8838 8.45483 23.9396 6.46439 22.7884C6.0085 22.5326 4.34511 22.6183 5.7175 24.3022C9.78307 29.2906 15.0947 28.6721 15.9931 28.6721C17.1365 28.6721 22.2339 27.8836 23.8855 25.5812C25.1281 23.8491 25.5218 23.0442 25.2677 23.0442C23.7431 23.9822 19.7537 26.0884 15.9931 25.9861Z" fill="#E63737" stroke="#E63737"/>
<path d="M15.5004 3.8677C14.9223 3.62707 14.2999 3.51336 13.6747 3.53415C11.6664 3.68727 8.49379 4.7835 7.33226 6.35795C6.33832 7.70515 5.08895 12.1538 4.01558 15.2636C3.17793 17.6905 3.84476 20.2835 4.01945 21.6947C4.44377 25.1264 11.5221 27.0013 15.5004 27.0013V3.8677Z" fill="#3F3941"/>
<path d="M9.67969 24.334C9.67969 24.334 9.67969 28.5547 15.5003 27.6084V21.0928L9.67969 24.334Z" fill="#C68032"/>
<path d="M15.4997 16.3484C15.4997 16.3484 13.2251 15.9258 11.9154 17.8689C11.0186 19.2018 10.4771 20.4394 9.68724 20.3169C7.46719 19.9732 6.00212 18.1433 5.98274 19.6728C5.95045 22.2681 8.34811 27.9593 12.0252 27.0012C15.4846 26.1 14.7054 23.3565 15.4997 23.3565V16.3484Z" fill="#F7A747"/>
<path d="M12.8695 19.1682C12.8333 20.1331 15.4997 21.0928 15.4997 21.0928V15.9995C15.4997 15.9995 12.9548 16.8587 12.8695 19.1682Z" fill="#262128"/>
<path d="M15.4998 15.9995C14.8879 16.0527 14.2876 16.199 13.7193 16.4335C13.1125 16.7586 12.5661 18.6474 12.8697 19.1682C13.1732 19.689 13.8959 19.3633 14.1416 19.1682C14.3874 18.9732 13.7138 17.4751 14.1416 17.5405C14.5695 17.6058 14.9334 19.7544 14.5085 19.8844C14.0835 20.0145 15.4998 21.0928 15.4998 21.0928V15.9995Z" fill="#3F3941"/>
<path d="M8.81568 6.73327C9.41017 5.21214 10.9146 4.14452 10.9243 4.1377C9.4599 4.63737 8.03099 5.41013 7.33156 6.35811C6.33762 7.70531 5.08825 12.1539 4.01488 15.2638C3.67608 16.313 3.54112 17.4181 3.61737 18.5187C6.75483 16.1071 8.23831 8.21019 8.81568 6.73327Z" fill="#262128"/>
<path d="M12.0254 3.81244C12.0254 3.81244 10.4234 3.28351 9.04196 3.52603C7.66053 3.76855 3.60308 5.48473 0.980674 6.24514C-1.42183 6.94214 1.34589 12.4597 1.34589 13.6304C1.34589 14.801 0.709424 17.4015 1.58485 17.7653C3.3131 18.486 4.8124 15.3638 6.48963 10.9733C8.16686 6.58291 8.07741 5.52505 9.68651 5.15704C10.9255 4.87421 12.0254 3.81244 12.0254 3.81244Z" fill="#3F3941"/>
<path d="M13.1139 10.8236C12.8623 11.5794 12.4035 11.4325 11.8913 11.0248C11.3792 10.6171 10.3626 10.0726 10.8877 9.76667C11.4127 9.46076 11.9356 9.49424 12.5898 8.98449C13.244 8.47473 13.5321 9.56869 13.1139 10.8236Z" fill="#F7A747"/>
<path d="M9.29367 15.2677C9.12276 15.252 8.9572 15.1995 8.80815 15.1139C8.6591 15.0282 8.53003 14.9114 8.42967 14.7712C8.3293 14.6311 8.25997 14.4709 8.22636 14.3015C8.19275 14.132 8.19563 13.9573 8.23483 13.7891C8.26187 13.6212 8.32279 13.4606 8.41383 13.3172C8.50486 13.1739 8.62408 13.0508 8.76415 12.9556C8.90422 12.8604 9.06217 12.7951 9.22826 12.7636C9.39436 12.7322 9.56509 12.7353 9.72993 12.7729C10.359 12.8844 10.7168 13.4133 10.9761 14.3138C11.0061 14.4185 11.4527 14.5622 11.3229 14.6952C11.2312 14.7888 10.6234 14.6952 10.5124 14.7602C10.3257 14.8681 9.93918 15.3831 9.29367 15.2683V15.2677Z" fill="#262128"/>
<path d="M10.8048 14.3172C10.5533 14.0294 10.5559 13.0899 9.68754 12.9358C9.54864 12.9126 9.40657 12.9174 9.26951 12.9498C9.13246 12.9823 9.00315 13.0417 8.88905 13.1248C8.77496 13.2078 8.67833 13.3128 8.60477 13.4336C8.5312 13.5545 8.48216 13.6888 8.46046 13.8289C8.41479 14.0866 8.46129 14.3523 8.59169 14.5788C8.72209 14.8053 8.92798 14.978 9.17281 15.0662C9.94135 15.3051 10.3582 14.5854 10.5533 14.598C10.7483 14.6107 11.1174 14.6748 10.8048 14.3172Z" fill="white"/>
<path d="M10.5362 14.2034C10.6442 13.5879 10.2513 13.0036 9.65858 12.8982C9.06588 12.7928 8.49786 13.2062 8.38987 13.8217C8.28188 14.4371 8.67481 15.0215 9.26751 15.1269C9.86021 15.2323 10.4282 14.8188 10.5362 14.2034Z" fill="#A05132"/>
<path d="M10.1102 14.128C10.1754 13.7564 9.93814 13.4036 9.5803 13.34C9.22247 13.2763 8.87954 13.526 8.81434 13.8975C8.74914 14.2691 8.98637 14.6219 9.3442 14.6855C9.70204 14.7492 10.045 14.4996 10.1102 14.128Z" fill="#3D2A2E"/>
<path d="M9.21866 13.5693C9.23877 13.4547 9.16551 13.3459 9.05505 13.3262C8.94458 13.3066 8.83873 13.3835 8.81863 13.4981C8.79852 13.6127 8.87178 13.7215 8.98224 13.7411C9.09271 13.7608 9.19856 13.6838 9.21866 13.5693Z" fill="#FBFCFC"/>
<path d="M12.8696 12.6016C12.8467 12.4615 12.4211 13.2242 12.0255 13.323C11.6299 13.4218 11.2385 13.3347 11.8815 13.7456C12.5244 14.1565 13.1864 14.5405 12.8696 12.6016Z" fill="#262128"/>
<path d="M8.59218 24.7075C8.51759 23.6194 9.62551 21.5541 9.46406 21.518C9.3026 21.4819 8.03418 23.8444 8.03418 24.8951C8.03547 25.0325 8.04778 25.1696 8.07099 25.305C8.40114 25.7303 8.78849 26.1072 9.22187 26.425C8.89753 25.9019 8.68322 25.3173 8.59218 24.7075Z" fill="#C68032"/>
<path d="M15.5 3.86769C16.0781 3.6271 16.7005 3.51339 17.3258 3.53414C19.3343 3.68726 22.5066 4.78349 23.6682 6.35794C24.6624 7.70514 25.9118 12.1538 26.9852 15.2636C27.8225 17.6905 27.156 20.2835 26.9813 21.6947C26.5567 25.1264 19.4787 27.0013 15.5 27.0013V3.86769Z" fill="#3F3941"/>
<path d="M21.3209 24.334C21.3209 24.334 21.3209 28.5547 15.5 27.6084V21.0928L21.3209 24.334Z" fill="#C68032"/>
<path d="M15.5003 16.3484C15.5003 16.3484 17.7753 15.9258 19.0847 17.8689C19.9814 19.2018 20.5226 20.4394 21.3128 20.3169C23.5329 19.9732 24.9979 18.1433 25.0173 19.6728C25.0496 22.2681 22.6516 27.9593 18.9746 27.0012C15.5155 26.1 16.2944 23.3565 15.5 23.3565L15.5003 16.3484Z" fill="#F7A747"/>
<path d="M18.1305 19.1682C18.1666 20.1331 15.5 21.0928 15.5 21.0928V15.9995C15.5 15.9995 18.0439 16.8587 18.1305 19.1682Z" fill="#262128"/>
<path d="M15.5 15.9995C16.1125 16.0525 16.7134 16.1988 17.2822 16.4335C17.8893 16.7586 18.4356 18.6474 18.1321 19.1682C17.8286 19.689 17.1055 19.3633 16.8601 19.1682C16.6147 18.9732 17.2877 17.4751 16.8601 17.5405C16.4326 17.6058 16.0683 19.7544 16.493 19.8844C16.9176 20.0145 15.5016 21.0928 15.5016 21.0928L15.5 15.9995Z" fill="#3F3941"/>
<path d="M22.1842 6.73327C21.5897 5.21214 20.0852 4.14452 20.0752 4.1377C21.5396 4.63737 22.9685 5.41013 23.668 6.35811C24.6622 7.70531 25.9116 12.1539 26.985 15.2638C27.3234 16.3131 27.4584 17.4181 27.3825 18.5187C24.2463 16.1071 22.7612 8.21019 22.1842 6.73327Z" fill="#262128"/>
<path d="M18.9746 3.81244C18.9746 3.81244 20.5766 3.28351 21.9584 3.52603C23.3401 3.76855 27.3969 5.48473 30.0193 6.24514C32.4222 6.94214 29.6541 12.4597 29.6541 13.6304C29.6541 14.801 30.2906 17.4015 29.4155 17.7653C27.6872 18.486 26.1863 15.3638 24.5104 10.9733C22.8344 6.58291 22.9226 5.52505 21.3135 5.15704C20.0748 4.87421 18.9746 3.81244 18.9746 3.81244Z" fill="#3F3941"/>
<path d="M17.8859 10.8236C18.1377 11.5794 18.5963 11.4325 19.1084 11.0248C19.6206 10.6171 20.6371 10.0726 20.112 9.76667C19.587 9.46076 19.0645 9.49424 18.4103 8.98449C17.756 8.47473 17.468 9.56869 17.8859 10.8236Z" fill="#F7A747"/>
<path d="M21.7058 15.2677C21.8767 15.252 22.0423 15.1995 22.1913 15.1139C22.3404 15.0282 22.4695 14.9114 22.5698 14.7712C22.6702 14.6311 22.7395 14.4709 22.7731 14.3015C22.8067 14.132 22.8039 13.9573 22.7647 13.7891C22.7376 13.6212 22.6767 13.4606 22.5857 13.3172C22.4946 13.1739 22.3754 13.0508 22.2353 12.9556C22.0953 12.8604 21.9373 12.7951 21.7712 12.7636C21.6051 12.7322 21.4344 12.7353 21.2696 12.7729C20.6405 12.8844 20.2831 13.4133 20.0237 14.3138C19.9934 14.4185 19.5471 14.5622 19.6769 14.6952C19.7683 14.7888 20.3764 14.6952 20.4875 14.7602C20.6741 14.8681 21.0603 15.3831 21.7058 15.2683V15.2677Z" fill="#262128"/>
<path d="M20.1212 14.3958C20.3727 14.1081 20.3701 13.1685 21.2381 13.0144C21.377 12.9913 21.5191 12.996 21.6561 13.0285C21.7932 13.0609 21.9225 13.1203 22.0366 13.2034C22.1507 13.2864 22.2473 13.3914 22.3209 13.5122C22.3945 13.6331 22.4435 13.7674 22.4652 13.9075C22.5109 14.1652 22.4644 14.431 22.3339 14.6575C22.2035 14.884 21.9975 15.0567 21.7525 15.1448C20.984 15.3837 20.5671 14.664 20.3721 14.6766C20.177 14.6893 19.8086 14.7534 20.1212 14.3958Z" fill="#FF3232"/>
<path d="M21.7338 15.1267C22.3265 15.0213 22.7194 14.437 22.6114 13.8215C22.5034 13.2061 21.9354 12.7926 21.3427 12.898C20.75 13.0034 20.3571 13.5878 20.4651 14.2032C20.5731 14.8187 21.1411 15.2322 21.7338 15.1267Z" fill="#FF3232"/>
<path d="M21.5539 14.6849C21.9118 14.6213 22.149 14.2685 22.0838 13.8969C22.0186 13.5254 21.6757 13.2757 21.3178 13.3394C20.96 13.403 20.7228 13.7558 20.788 14.1274C20.8532 14.4989 21.1961 14.7486 21.5539 14.6849Z" fill="#970121"/>
<path d="M21.5239 14.5155C21.7917 14.4679 21.9693 14.2039 21.9205 13.9258C21.8717 13.6477 21.615 13.4609 21.3472 13.5085C21.0794 13.5561 20.9019 13.8202 20.9507 14.0982C20.9994 14.3763 21.2561 14.5632 21.5239 14.5155Z" fill="#DA2020"/>
<path d="M18.1307 12.6016C18.1537 12.4615 18.5789 13.2242 18.9745 13.323C19.3701 13.4218 19.7615 13.3347 19.1185 13.7456C18.4756 14.1565 17.8136 14.5405 18.1307 12.6016Z" fill="#262128"/>
<path d="M22.4085 24.7075C22.4828 23.6194 21.3752 21.5541 21.5366 21.518C21.6981 21.4819 22.9662 23.8444 22.9662 24.8951C22.9648 25.0325 22.9526 25.1696 22.9297 25.305C22.5994 25.7303 22.2119 26.1072 21.7785 26.425C22.1029 25.9019 22.3173 25.3173 22.4085 24.7075Z" fill="#C68032"/>
</g>
<defs>
<clipPath id="clip0_54_809">
<rect width="31" height="33" fill="white"/>
</clipPath>
</defs>
</svg>
