<svg width="134" height="45" viewBox="0 0 134 45" fill="none" xmlns="http://www.w3.org/2000/svg">
<circle cx="22.5" cy="22.5" r="22.5" fill="white"/>
<path d="M72.915 31L71.8042 27.1304H66.0425L64.9194 31H60.354L66.2744 13.3853H71.7554L77.6758 31H72.915ZM68.8745 17.1206L66.9092 23.9077H70.9253L68.9722 17.1206H68.8745ZM83.8525 31H79.3726V13.3853H83.8525V31ZM86.5259 13.3853H93.6792C99.0015 13.3853 102.126 16.4736 102.126 22.0889C102.126 27.7163 98.9893 31 93.6792 31H86.5259V13.3853ZM91.0059 16.9985V27.3867H93.0933C96.0107 27.3867 97.5732 25.6167 97.5732 22.1011C97.5732 18.793 95.9253 16.9985 93.0933 16.9985H91.0059ZM110.403 31.3174C106.216 31.3174 103.604 28.7783 103.604 24.3472C103.604 20.0015 106.277 17.3892 110.403 17.3892C114.553 17.3892 117.202 19.9893 117.202 24.3472C117.202 28.7905 114.59 31.3174 110.403 31.3174ZM110.403 28.1436C111.88 28.1436 112.82 26.7886 112.82 24.3594C112.82 21.9668 111.88 20.563 110.403 20.563C108.938 20.563 107.998 21.9668 107.998 24.3594C107.998 26.7886 108.914 28.1436 110.403 28.1436ZM125.393 27.6919C126.943 27.6919 127.896 26.4956 127.896 24.3472C127.896 22.2231 126.931 20.8926 125.393 20.8926C123.843 20.8926 122.903 22.2109 122.903 24.3472C122.903 26.4956 123.831 27.6919 125.393 27.6919ZM125.259 36.0049C121.475 36.0049 119.07 34.2837 118.826 31.8667H123.013C123.22 32.6357 124.124 33.1729 125.356 33.1729C127.017 33.1729 127.883 32.2817 127.883 30.9634V28.522H127.798C127.273 29.9258 125.71 30.8901 123.757 30.8901C120.583 30.8901 118.472 28.4731 118.472 24.3105C118.472 20.0625 120.486 17.5112 123.818 17.5112C125.747 17.5112 127.224 18.561 127.822 20.0625H127.908V17.7065H132.205V30.8535C132.205 34.0273 129.397 36.0049 125.259 36.0049Z" fill="white"/>
<g clip-path="url(#clip0_46_235)">
<path d="M22.2305 33.521C18.4699 33.4187 14.6923 31.4745 12.7018 30.3234C12.2459 30.0676 10.9869 32.193 12.7018 33.521C16.0051 36.0792 21.3321 36.2071 22.2305 36.2071C23.374 36.2071 30.2346 35.8234 31.8862 33.5211C33.1288 31.7889 31.7592 30.5792 31.5051 30.5792C29.9805 31.5172 25.9912 33.6234 22.2305 33.521Z" fill="#FF4040" stroke="#FF4040"/>
<path d="M22.9928 31.9863C19.2322 31.884 15.4546 29.9398 13.4641 28.7887C13.0083 28.5329 11.3449 28.6185 12.7173 30.3024C16.7828 35.2908 22.0945 34.6724 22.9928 34.6724C24.1363 34.6724 29.2336 33.8838 30.8853 31.5815C32.1279 29.8494 32.5215 29.0445 32.2674 29.0445C30.7428 29.9825 26.7535 32.0887 22.9928 31.9863Z" fill="#E63737" stroke="#E63737"/>
<path d="M22.4999 9.8677C21.9218 9.62707 21.2994 9.51336 20.6742 9.53415C18.666 9.68727 15.4933 10.7835 14.3318 12.3579C13.3378 13.7051 12.0885 18.1538 11.0151 21.2636C10.1774 23.6905 10.8443 26.2835 11.019 27.6947C11.4433 31.1264 18.5216 33.0013 22.4999 33.0013V9.8677Z" fill="#3F3941"/>
<path d="M16.6794 30.3342C16.6794 30.3342 16.6794 34.555 22.5 33.6086V27.093L16.6794 30.3342Z" fill="#C68032"/>
<path d="M22.5 22.3484C22.5 22.3484 20.2254 21.9258 18.9156 23.8689C18.0189 25.2018 17.4773 26.4394 16.6875 26.3169C14.4674 25.9732 13.0024 24.1433 12.983 25.6728C12.9507 28.2681 15.3484 33.9593 19.0254 33.0012C22.4848 32.1 21.7056 29.3565 22.5 29.3565V22.3484Z" fill="#F7A747"/>
<path d="M19.8699 25.1685C19.8337 26.1334 22.5 27.0931 22.5 27.0931V21.9998C22.5 21.9998 19.9551 22.859 19.8699 25.1685Z" fill="#262128"/>
<path d="M22.5 21.9998C21.888 22.0529 21.2877 22.1992 20.7194 22.4338C20.1126 22.7589 19.5663 24.6477 19.8698 25.1685C20.1733 25.6893 20.896 25.3635 21.1418 25.1685C21.3875 24.9734 20.7139 23.4754 21.1418 23.5407C21.5696 23.6061 21.9336 25.7546 21.5086 25.8847C21.0836 26.0147 22.5 27.0931 22.5 27.0931V21.9998Z" fill="#3F3941"/>
<path d="M15.8159 12.733C16.4104 11.2119 17.9149 10.1443 17.9246 10.1375C16.4601 10.6371 15.0312 11.4099 14.3318 12.3579C13.3379 13.7051 12.0885 18.1537 11.0151 21.2636C10.6763 22.3128 10.5414 23.4179 10.6176 24.5184C13.7551 22.1069 15.2386 14.2099 15.8159 12.733Z" fill="#262128"/>
<path d="M19.0254 9.81244C19.0254 9.81244 17.4234 9.28351 16.042 9.52603C14.6605 9.76855 10.6031 11.4847 7.98067 12.2451C5.57817 12.9421 8.34589 18.4597 8.34589 19.6304C8.34589 20.801 7.70942 23.4015 8.58485 23.7653C10.3131 24.486 11.8124 21.3638 13.4896 16.9733C15.1669 12.5829 15.0774 11.5251 16.6865 11.157C17.9255 10.8742 19.0254 9.81244 19.0254 9.81244Z" fill="#3F3941"/>
<path d="M20.114 16.8238C19.8624 17.5797 19.4036 17.4327 18.8914 17.025C18.3793 16.6174 17.3627 16.0728 17.8878 15.7669C18.4129 15.461 18.9357 15.4945 19.5899 14.9847C20.2441 14.475 20.5322 15.5689 20.114 16.8238Z" fill="#F7A747"/>
<path d="M16.2932 21.2677C16.1223 21.252 15.9567 21.1995 15.8077 21.1139C15.6586 21.0282 15.5295 20.9114 15.4292 20.7712C15.3288 20.6311 15.2595 20.4709 15.2259 20.3015C15.1923 20.132 15.1951 19.9573 15.2343 19.7891C15.2614 19.6212 15.3223 19.4606 15.4133 19.3172C15.5044 19.1739 15.6236 19.0508 15.7637 18.9556C15.9037 18.8604 16.0617 18.7951 16.2278 18.7636C16.3939 18.7322 16.5646 18.7353 16.7294 18.7729C17.3585 18.8844 17.7163 19.4133 17.9756 20.3138C18.0056 20.4185 18.4522 20.5622 18.3224 20.6952C18.2307 20.7888 17.623 20.6952 17.5119 20.7602C17.3252 20.8681 16.9387 21.3831 16.2932 21.2683V21.2677Z" fill="#262128"/>
<path d="M17.8045 20.3174C17.5529 20.0297 17.5555 19.0902 16.6872 18.9361C16.5483 18.9129 16.4062 18.9177 16.2691 18.9501C16.1321 18.9825 16.0028 19.042 15.8887 19.125C15.7746 19.208 15.678 19.313 15.6044 19.4339C15.5308 19.5547 15.4818 19.6891 15.4601 19.8291C15.4144 20.0868 15.4609 20.3525 15.5913 20.579C15.7217 20.8055 15.9276 20.9782 16.1724 21.0664C16.941 21.3054 17.3579 20.5856 17.5529 20.5983C17.748 20.611 18.117 20.675 17.8045 20.3174Z" fill="white"/>
<path d="M17.5362 20.2034C17.6442 19.5879 17.2513 19.0036 16.6586 18.8982C16.0659 18.7928 15.4979 19.2062 15.3899 19.8217C15.2819 20.4371 15.6748 21.0215 16.2675 21.1269C16.8602 21.2323 17.4282 20.8188 17.5362 20.2034Z" fill="#A05132"/>
<path d="M17.1107 20.128C17.1759 19.7564 16.9386 19.4036 16.5808 19.34C16.223 19.2763 15.88 19.526 15.8148 19.8975C15.7496 20.2691 15.9869 20.6219 16.3447 20.6855C16.7025 20.7492 17.0455 20.4996 17.1107 20.128Z" fill="#3D2A2E"/>
<path d="M16.2192 19.5695C16.2393 19.4549 16.166 19.3461 16.0555 19.3265C15.9451 19.3068 15.8392 19.3838 15.8191 19.4984C15.799 19.6129 15.8723 19.7217 15.9827 19.7414C16.0932 19.761 16.199 19.6841 16.2192 19.5695Z" fill="#FBFCFC"/>
<path d="M19.8695 18.6018C19.8466 18.4617 19.4209 19.2244 19.0254 19.3232C18.6298 19.4221 18.2384 19.3349 18.8814 19.7459C19.5243 20.1568 20.1863 20.5407 19.8695 18.6018Z" fill="#262128"/>
<path d="M15.5922 30.7075C15.5176 29.6194 16.6255 27.5541 16.4641 27.518C16.3026 27.4819 15.0342 29.8444 15.0342 30.8951C15.0355 31.0325 15.0478 31.1696 15.071 31.305C15.4011 31.7303 15.7885 32.1072 16.2219 32.425C15.8975 31.9019 15.6832 31.3173 15.5922 30.7075Z" fill="#C68032"/>
<path d="M22.5 9.86769C23.0781 9.6271 23.7005 9.51339 24.3258 9.53414C26.3343 9.68726 29.5066 10.7835 30.6682 12.3579C31.6624 13.7051 32.9118 18.1538 33.9852 21.2636C34.8225 23.6905 34.156 26.2835 33.9813 27.6947C33.5567 31.1264 26.4787 33.0013 22.5 33.0013V9.86769Z" fill="#3F3941"/>
<path d="M28.3209 30.3342C28.3209 30.3342 28.3209 34.555 22.5 33.6086V27.093L28.3209 30.3342Z" fill="#C68032"/>
<path d="M22.5 22.3484C22.5 22.3484 24.7749 21.9258 26.0843 23.8689C26.9811 25.2018 27.5223 26.4394 28.3125 26.3169C30.5325 25.9732 31.9976 24.1433 32.017 25.6728C32.0492 28.2681 29.6513 33.9593 25.9742 33.0012C22.5151 32.1 23.294 29.3565 22.4996 29.3565L22.5 22.3484Z" fill="#F7A747"/>
<path d="M25.1305 25.1685C25.1666 26.1334 22.5 27.0931 22.5 27.0931V21.9998C22.5 21.9998 25.0439 22.859 25.1305 25.1685Z" fill="#262128"/>
<path d="M22.5 21.9998C23.1125 22.0528 23.7134 22.1991 24.2822 22.4338C24.8893 22.7589 25.4356 24.6477 25.1321 25.1685C24.8286 25.6893 24.1055 25.3635 23.8601 25.1685C23.6147 24.9734 24.2877 23.4754 23.8601 23.5407C23.4326 23.6061 23.0683 25.7546 23.493 25.8847C23.9176 26.0147 22.5016 27.0931 22.5016 27.0931L22.5 21.9998Z" fill="#3F3941"/>
<path d="M29.1844 12.733C28.5899 11.2119 27.0854 10.1443 27.0754 10.1375C28.5399 10.6371 29.9688 11.4099 30.6682 12.3579C31.6625 13.7051 32.9118 18.1537 33.9852 21.2636C34.3237 22.3128 34.4586 23.4179 34.3827 24.5184C31.2466 22.1069 29.7615 14.2099 29.1844 12.733Z" fill="#262128"/>
<path d="M25.9746 9.81244C25.9746 9.81244 27.5766 9.28351 28.9584 9.52603C30.3401 9.76855 34.3969 11.4847 37.0193 12.2451C39.4222 12.9421 36.6541 18.4597 36.6541 19.6304C36.6541 20.801 37.2906 23.4015 36.4155 23.7653C34.6872 24.486 33.1863 21.3638 31.5104 16.9733C29.8344 12.5829 29.9226 11.5251 28.3135 11.157C27.0748 10.8742 25.9746 9.81244 25.9746 9.81244Z" fill="#3F3941"/>
<path d="M24.886 16.8238C25.1378 17.5797 25.5964 17.4327 26.1085 17.025C26.6207 16.6174 27.6372 16.0728 27.1122 15.7669C26.5871 15.461 26.0646 15.4945 25.4104 14.9847C24.7562 14.475 24.4681 15.5689 24.886 16.8238Z" fill="#F7A747"/>
<path d="M28.7061 21.2677C28.877 21.252 29.0425 21.1995 29.1916 21.1139C29.3406 21.0282 29.4697 20.9114 29.5701 20.7712C29.6704 20.6311 29.7398 20.4709 29.7734 20.3015C29.807 20.132 29.8041 19.9573 29.7649 19.7891C29.7379 19.6212 29.6769 19.4606 29.5859 19.3172C29.4949 19.1739 29.3757 19.0508 29.2356 18.9556C29.0955 18.8604 28.9376 18.7951 28.7715 18.7636C28.6054 18.7322 28.4346 18.7353 28.2698 18.7729C27.6408 18.8844 27.2833 19.4133 27.024 20.3138C26.9936 20.4185 26.5474 20.5622 26.6772 20.6952C26.7686 20.7888 27.3766 20.6952 27.4877 20.7602C27.6743 20.8681 28.0606 21.3831 28.7061 21.2683V21.2677Z" fill="#262128"/>
<path d="M27.1959 20.3174C27.4474 20.0297 27.4448 19.0902 28.3128 18.9361C28.4517 18.9129 28.5938 18.9177 28.7309 18.9501C28.8679 18.9825 28.9972 19.042 29.1113 19.125C29.2254 19.208 29.322 19.313 29.3956 19.4339C29.4692 19.5547 29.5182 19.6891 29.5399 19.8291C29.5856 20.0869 29.5391 20.3526 29.4086 20.5791C29.2782 20.8057 29.0722 20.9783 28.8272 21.0664C28.0587 21.3054 27.6418 20.5856 27.4468 20.5983C27.2517 20.611 26.8833 20.675 27.1959 20.3174Z" fill="white"/>
<path d="M28.7337 21.127C29.3264 21.0216 29.7193 20.4372 29.6113 19.8218C29.5033 19.2063 28.9353 18.7928 28.3426 18.8983C27.7499 19.0037 27.357 19.588 27.4649 20.2035C27.5729 20.8189 28.141 21.2324 28.7337 21.127Z" fill="#A05132"/>
<path d="M28.656 20.6852C29.0138 20.6215 29.251 20.2687 29.1859 19.8972C29.1207 19.5256 28.7777 19.276 28.4199 19.3396C28.0621 19.4032 27.8248 19.756 27.89 20.1276C27.9552 20.4992 28.2982 20.7488 28.656 20.6852Z" fill="#3D2A2E"/>
<path d="M29.0177 19.7409C29.1282 19.7213 29.2014 19.6125 29.1813 19.4979C29.1612 19.3833 29.0554 19.3064 28.9449 19.326C28.8344 19.3456 28.7612 19.4545 28.7813 19.569C28.8014 19.6836 28.9072 19.7605 29.0177 19.7409Z" fill="#FBFCFC"/>
<path d="M25.1307 18.6018C25.1537 18.4617 25.5789 19.2244 25.9745 19.3232C26.3701 19.4221 26.7615 19.3349 26.1185 19.7459C25.4756 20.1568 24.8136 20.5407 25.1307 18.6018Z" fill="#262128"/>
<path d="M29.4081 30.7075C29.4824 29.6194 28.3748 27.5541 28.5362 27.518C28.6977 27.4819 29.9658 29.8444 29.9658 30.8951C29.9645 31.0325 29.9523 31.1696 29.9293 31.305C29.599 31.7303 29.2116 32.1072 28.7781 32.425C29.1025 31.9019 29.317 31.3173 29.4081 30.7075Z" fill="#C68032"/>
</g>
<defs>
<clipPath id="clip0_46_235">
<rect width="31" height="33" fill="white" transform="translate(7 6)"/>
</clipPath>
</defs>
</svg>
