<svg width="225" height="45" viewBox="0 0 225 45" fill="none" xmlns="http://www.w3.org/2000/svg">
<circle cx="22.5" cy="22.5" r="22.5" fill="white"/>
<path d="M70.332 29L69.4434 25.9043H64.834L63.9355 29H60.2832L65.0195 14.9082H69.4043L74.1406 29H70.332ZM67.0996 17.8965L65.5273 23.3262H68.7402L67.1777 17.8965H67.0996ZM79.082 29H75.498V14.9082H79.082V29ZM91.5625 29.2441C87.3438 29.2441 84.7168 26.5586 84.7168 21.9492C84.7168 17.3496 87.3633 14.6641 91.5625 14.6641C95.127 14.6641 97.832 16.959 97.9395 20.2891H94.4922C94.3164 18.6289 93.1348 17.5352 91.5625 17.5352C89.6094 17.5352 88.3691 19.2051 88.3691 21.9395C88.3691 24.7031 89.5996 26.373 91.5723 26.373C93.1445 26.373 94.2871 25.3379 94.5117 23.6875H97.959C97.793 27.0371 95.1953 29.2441 91.5625 29.2441ZM99.4629 29V14.9082H102.852V20.3672H102.92C103.467 18.9414 104.629 18.1602 106.25 18.1602C108.623 18.1602 109.941 19.6641 109.941 22.1738V29H106.484V22.9258C106.484 21.7246 105.889 20.9824 104.746 20.9824C103.584 20.9824 102.93 21.8125 102.93 23.0039V29H99.4629ZM115.977 26.7734C117.031 26.7734 117.949 26.1289 117.949 25.1816V24.4492L116.016 24.5762C115.107 24.6445 114.6 25.0645 114.6 25.6895C114.6 26.3633 115.156 26.7734 115.977 26.7734ZM114.746 29.1562C112.773 29.1562 111.172 27.8477 111.172 25.9238C111.172 23.9316 112.705 22.8184 115.459 22.6523L117.949 22.5059V21.9004C117.949 21.0508 117.344 20.582 116.436 20.582C115.498 20.582 114.902 21.0703 114.805 21.7246H111.689C111.787 19.5469 113.643 18.1113 116.611 18.1113C119.453 18.1113 121.338 19.5664 121.338 21.7051V29H117.969V27.4863H117.9C117.324 28.5605 116.025 29.1562 114.746 29.1562ZM123.867 15.9824H127.334V18.3652H129.248V20.9141H127.334V25.377C127.334 26.1094 127.725 26.4805 128.555 26.4805C128.828 26.4805 129.033 26.4707 129.238 26.4316V28.8926C128.906 28.9609 128.398 29.0195 127.725 29.0195C124.961 29.0195 123.867 28.1699 123.867 26.0801V20.9141H122.422V18.3652H123.867V15.9824ZM138.379 29H134.795V14.9082H138.379V29ZM140.283 29V18.3652H143.652V20.3672H143.721C144.268 18.9512 145.381 18.1602 147.012 18.1602C149.385 18.1602 150.703 19.6445 150.703 22.1738V29H147.246V22.916C147.246 21.7051 146.67 20.9824 145.537 20.9824C144.434 20.9824 143.75 21.8125 143.75 22.9844V29H140.283ZM152.158 21.5879C152.158 19.459 153.975 18.1113 156.904 18.1113C159.805 18.1113 161.611 19.4883 161.631 21.6855H158.467C158.438 20.9238 157.832 20.4453 156.875 20.4453C156.025 20.4453 155.479 20.8164 155.479 21.3633C155.479 21.7832 155.869 22.0859 156.67 22.252L158.896 22.7012C161.016 23.1504 161.924 24.0195 161.924 25.6309C161.924 27.8379 159.922 29.2539 156.953 29.2539C153.848 29.2539 152.051 27.8379 151.904 25.6602H155.264C155.361 26.4512 155.996 26.9199 157.012 26.9199C157.93 26.9199 158.496 26.5879 158.496 26.0215C158.496 25.5918 158.174 25.3477 157.344 25.1719L155.332 24.752C153.252 24.3125 152.158 23.2188 152.158 21.5879ZM169.893 18.209C172.578 18.209 174.141 20.2109 174.141 23.6875C174.141 27.1543 172.588 29.1562 169.941 29.1562C168.379 29.1562 167.207 28.4141 166.689 27.1836H166.621V32.4375H163.154V18.3652H166.602V20.2598H166.67C167.207 18.9805 168.359 18.209 169.893 18.209ZM168.604 26.4512C169.834 26.4512 170.605 25.377 170.605 23.6875C170.605 21.998 169.824 20.9141 168.604 20.9141C167.393 20.9141 166.611 22.0078 166.602 23.6875C166.611 25.377 167.383 26.4512 168.604 26.4512ZM180.527 20.5723C179.463 20.5723 178.672 21.3633 178.584 22.4668H182.451C182.393 21.334 181.621 20.5723 180.527 20.5723ZM182.529 25.6406H185.654C185.322 27.8379 183.369 29.2539 180.586 29.2539C177.197 29.2539 175.176 27.1738 175.176 23.7363C175.176 20.2988 177.217 18.1113 180.469 18.1113C183.672 18.1113 185.713 20.2109 185.713 23.4629V24.4395H178.535V24.6543C178.535 25.9238 179.385 26.8027 180.635 26.8027C181.562 26.8027 182.285 26.3633 182.529 25.6406ZM197.148 22.5645H193.965C193.848 21.4609 193.184 20.748 192.178 20.748C190.957 20.748 190.244 21.8027 190.244 23.6777C190.244 25.5723 190.957 26.627 192.178 26.627C193.193 26.627 193.848 25.9727 193.975 24.8691H197.148C197.061 27.5742 195.137 29.2539 192.139 29.2539C188.809 29.2539 186.738 27.1641 186.738 23.6777C186.738 20.2305 188.809 18.1113 192.119 18.1113C195.117 18.1113 197.061 19.8984 197.148 22.5645ZM199.297 15.9824H202.764V18.3652H204.678V20.9141H202.764V25.377C202.764 26.1094 203.154 26.4805 203.984 26.4805C204.258 26.4805 204.463 26.4707 204.668 26.4316V28.8926C204.336 28.9609 203.828 29.0195 203.154 29.0195C200.391 29.0195 199.297 28.1699 199.297 26.0801V20.9141H197.852V18.3652H199.297V15.9824ZM211.143 29.2539C207.793 29.2539 205.703 27.2227 205.703 23.6777C205.703 20.2012 207.842 18.1113 211.143 18.1113C214.463 18.1113 216.582 20.1914 216.582 23.6777C216.582 27.2324 214.492 29.2539 211.143 29.2539ZM211.143 26.7148C212.324 26.7148 213.076 25.6309 213.076 23.6875C213.076 21.7734 212.324 20.6504 211.143 20.6504C209.971 20.6504 209.219 21.7734 209.219 23.6875C209.219 25.6309 209.951 26.7148 211.143 26.7148ZM217.92 29V18.3652H221.289V20.377H221.357C221.748 18.9414 222.607 18.209 223.857 18.209C224.209 18.209 224.502 18.2578 224.736 18.3457V21.2949C224.443 21.1777 224.043 21.0996 223.633 21.0996C222.178 21.0996 221.387 21.9199 221.387 23.4043V29H217.92Z" fill="white"/>
<g clip-path="url(#clip0_54_806)">
<path d="M22.2308 33.521C18.4701 33.4187 14.6925 31.4745 12.7021 30.3234C12.2462 30.0676 10.9872 32.193 12.7021 33.521C16.0053 36.0792 21.3324 36.2071 22.2308 36.2071C23.3742 36.2071 30.2349 35.8234 31.8865 33.5211C33.1291 31.7889 31.7594 30.5792 31.5053 30.5792C29.9808 31.5172 25.9914 33.6234 22.2308 33.521Z" fill="#FF4040" stroke="#FF4040"/>
<path d="M22.9931 31.9861C19.2324 31.8838 15.4548 29.9396 13.4644 28.7884C13.0085 28.5326 11.3451 28.6183 12.7175 30.3022C16.7831 35.2906 22.0947 34.6721 22.9931 34.6721C24.1365 34.6721 29.2339 33.8836 30.8855 31.5812C32.1281 29.8491 32.5218 29.0442 32.2677 29.0442C30.7431 29.9822 26.7537 32.0884 22.9931 31.9861Z" fill="#E63737" stroke="#E63737"/>
<path d="M22.5004 9.8677C21.9223 9.62707 21.2999 9.51336 20.6747 9.53415C18.6664 9.68727 15.4938 10.7835 14.3323 12.3579C13.3383 13.7051 12.089 18.1538 11.0156 21.2636C10.1779 23.6905 10.8448 26.2835 11.0195 27.6947C11.4438 31.1264 18.5221 33.0013 22.5004 33.0013V9.8677Z" fill="#3F3941"/>
<path d="M16.6797 30.334C16.6797 30.334 16.6797 34.5547 22.5003 33.6084V27.0928L16.6797 30.334Z" fill="#C68032"/>
<path d="M22.4997 22.3484C22.4997 22.3484 20.2251 21.9258 18.9154 23.8689C18.0186 25.2018 17.4771 26.4394 16.6872 26.3169C14.4672 25.9732 13.0021 24.1433 12.9827 25.6728C12.9505 28.2681 15.3481 33.9593 19.0252 33.0012C22.4846 32.1 21.7054 29.3565 22.4997 29.3565V22.3484Z" fill="#F7A747"/>
<path d="M19.8695 25.1682C19.8333 26.1331 22.4997 27.0928 22.4997 27.0928V21.9995C22.4997 21.9995 19.9548 22.8587 19.8695 25.1682Z" fill="#262128"/>
<path d="M22.4998 21.9995C21.8879 22.0527 21.2876 22.199 20.7193 22.4335C20.1125 22.7586 19.5661 24.6474 19.8697 25.1682C20.1732 25.689 20.8959 25.3633 21.1416 25.1682C21.3874 24.9732 20.7138 23.4751 21.1416 23.5405C21.5695 23.6058 21.9334 25.7544 21.5085 25.8844C21.0835 26.0145 22.4998 27.0928 22.4998 27.0928V21.9995Z" fill="#3F3941"/>
<path d="M15.8157 12.7333C16.4102 11.2121 17.9146 10.1445 17.9243 10.1377C16.4599 10.6374 15.031 11.4101 14.3316 12.3581C13.3376 13.7053 12.0883 18.1539 11.0149 21.2638C10.6761 22.313 10.5411 23.4181 10.6174 24.5187C13.7548 22.1071 15.2383 14.2102 15.8157 12.7333Z" fill="#262128"/>
<path d="M19.0254 9.81244C19.0254 9.81244 17.4234 9.28351 16.042 9.52603C14.6605 9.76855 10.6031 11.4847 7.98067 12.2451C5.57817 12.9421 8.34589 18.4597 8.34589 19.6304C8.34589 20.801 7.70942 23.4015 8.58485 23.7653C10.3131 24.486 11.8124 21.3638 13.4896 16.9733C15.1669 12.5829 15.0774 11.5251 16.6865 11.157C17.9255 10.8742 19.0254 9.81244 19.0254 9.81244Z" fill="#3F3941"/>
<path d="M20.1139 16.8236C19.8623 17.5794 19.4035 17.4325 18.8913 17.0248C18.3792 16.6171 17.3626 16.0726 17.8877 15.7667C18.4127 15.4608 18.9356 15.4942 19.5898 14.9845C20.244 14.4747 20.5321 15.5687 20.1139 16.8236Z" fill="#F7A747"/>
<path d="M16.2937 21.2677C16.1228 21.252 15.9572 21.1995 15.8081 21.1139C15.6591 21.0282 15.53 20.9114 15.4297 20.7712C15.3293 20.6311 15.26 20.4709 15.2264 20.3015C15.1927 20.132 15.1956 19.9573 15.2348 19.7891C15.2619 19.6212 15.3228 19.4606 15.4138 19.3172C15.5049 19.1739 15.6241 19.0508 15.7642 18.9556C15.9042 18.8604 16.0622 18.7951 16.2283 18.7636C16.3944 18.7322 16.5651 18.7353 16.7299 18.7729C17.359 18.8844 17.7168 19.4133 17.9761 20.3138C18.0061 20.4185 18.4527 20.5622 18.3229 20.6952C18.2312 20.7888 17.6234 20.6952 17.5124 20.7602C17.3257 20.8681 16.9392 21.3831 16.2937 21.2683V21.2677Z" fill="#262128"/>
<path d="M17.8048 20.3172C17.5533 20.0294 17.5559 19.0899 16.6875 18.9358C16.5486 18.9126 16.4066 18.9174 16.2695 18.9498C16.1325 18.9823 16.0032 19.0417 15.8891 19.1248C15.775 19.2078 15.6783 19.3128 15.6048 19.4336C15.5312 19.5545 15.4822 19.6888 15.4605 19.8289C15.4148 20.0866 15.4613 20.3523 15.5917 20.5788C15.7221 20.8053 15.928 20.978 16.1728 21.0662C16.9414 21.3051 17.3582 20.5854 17.5533 20.598C17.7483 20.6107 18.1174 20.6748 17.8048 20.3172Z" fill="white"/>
<path d="M17.5362 20.2034C17.6442 19.5879 17.2513 19.0036 16.6586 18.8982C16.0659 18.7928 15.4979 19.2062 15.3899 19.8217C15.2819 20.4371 15.6748 21.0215 16.2675 21.1269C16.8602 21.2323 17.4282 20.8188 17.5362 20.2034Z" fill="#A05132"/>
<path d="M17.1102 20.128C17.1754 19.7564 16.9381 19.4036 16.5803 19.34C16.2225 19.2763 15.8795 19.526 15.8143 19.8975C15.7491 20.2691 15.9864 20.6219 16.3442 20.6855C16.702 20.7492 17.045 20.4996 17.1102 20.128Z" fill="#3D2A2E"/>
<path d="M16.2187 19.5693C16.2388 19.4547 16.1655 19.3459 16.055 19.3262C15.9446 19.3066 15.8387 19.3835 15.8186 19.4981C15.7985 19.6127 15.8718 19.7215 15.9822 19.7411C16.0927 19.7608 16.1986 19.6838 16.2187 19.5693Z" fill="#FBFCFC"/>
<path d="M19.8696 18.6016C19.8467 18.4615 19.4211 19.2242 19.0255 19.323C18.6299 19.4218 18.2385 19.3347 18.8815 19.7456C19.5244 20.1565 20.1864 20.5405 19.8696 18.6016Z" fill="#262128"/>
<path d="M15.5922 30.7075C15.5176 29.6194 16.6255 27.5541 16.4641 27.518C16.3026 27.4819 15.0342 29.8444 15.0342 30.8951C15.0355 31.0325 15.0478 31.1696 15.071 31.305C15.4011 31.7303 15.7885 32.1072 16.2219 32.425C15.8975 31.9019 15.6832 31.3173 15.5922 30.7075Z" fill="#C68032"/>
<path d="M22.5 9.86769C23.0781 9.6271 23.7005 9.51339 24.3258 9.53414C26.3343 9.68726 29.5066 10.7835 30.6682 12.3579C31.6624 13.7051 32.9118 18.1538 33.9852 21.2636C34.8225 23.6905 34.156 26.2835 33.9813 27.6947C33.5567 31.1264 26.4787 33.0013 22.5 33.0013V9.86769Z" fill="#3F3941"/>
<path d="M28.3209 30.334C28.3209 30.334 28.3209 34.5547 22.5 33.6084V27.0928L28.3209 30.334Z" fill="#C68032"/>
<path d="M22.5003 22.3484C22.5003 22.3484 24.7753 21.9258 26.0847 23.8689C26.9814 25.2018 27.5226 26.4394 28.3128 26.3169C30.5329 25.9732 31.9979 24.1433 32.0173 25.6728C32.0496 28.2681 29.6516 33.9593 25.9746 33.0012C22.5155 32.1 23.2944 29.3565 22.5 29.3565L22.5003 22.3484Z" fill="#F7A747"/>
<path d="M25.1305 25.1682C25.1666 26.1331 22.5 27.0928 22.5 27.0928V21.9995C22.5 21.9995 25.0439 22.8587 25.1305 25.1682Z" fill="#262128"/>
<path d="M22.5 21.9995C23.1125 22.0525 23.7134 22.1988 24.2822 22.4335C24.8893 22.7586 25.4356 24.6474 25.1321 25.1682C24.8286 25.689 24.1055 25.3633 23.8601 25.1682C23.6147 24.9732 24.2877 23.4751 23.8601 23.5405C23.4326 23.6058 23.0683 25.7544 23.493 25.8844C23.9176 26.0145 22.5016 27.0928 22.5016 27.0928L22.5 21.9995Z" fill="#3F3941"/>
<path d="M29.1842 12.7333C28.5897 11.2121 27.0852 10.1445 27.0752 10.1377C28.5396 10.6374 29.9685 11.4101 30.668 12.3581C31.6622 13.7053 32.9116 18.1539 33.985 21.2638C34.3234 22.3131 34.4584 23.4181 34.3825 24.5187C31.2463 22.1071 29.7612 14.2102 29.1842 12.7333Z" fill="#262128"/>
<path d="M25.9746 9.81244C25.9746 9.81244 27.5766 9.28351 28.9584 9.52603C30.3401 9.76855 34.3969 11.4847 37.0193 12.2451C39.4222 12.9421 36.6541 18.4597 36.6541 19.6304C36.6541 20.801 37.2906 23.4015 36.4155 23.7653C34.6872 24.486 33.1863 21.3638 31.5104 16.9733C29.8344 12.5829 29.9226 11.5251 28.3135 11.157C27.0748 10.8742 25.9746 9.81244 25.9746 9.81244Z" fill="#3F3941"/>
<path d="M24.8859 16.8236C25.1377 17.5794 25.5963 17.4325 26.1084 17.0248C26.6206 16.6171 27.6371 16.0726 27.112 15.7667C26.587 15.4608 26.0645 15.4942 25.4103 14.9845C24.756 14.4747 24.468 15.5687 24.8859 16.8236Z" fill="#F7A747"/>
<path d="M28.7058 21.2677C28.8767 21.252 29.0423 21.1995 29.1913 21.1139C29.3404 21.0282 29.4695 20.9114 29.5698 20.7712C29.6702 20.6311 29.7395 20.4709 29.7731 20.3015C29.8067 20.132 29.8039 19.9573 29.7647 19.7891C29.7376 19.6212 29.6767 19.4606 29.5857 19.3172C29.4946 19.1739 29.3754 19.0508 29.2353 18.9556C29.0953 18.8604 28.9373 18.7951 28.7712 18.7636C28.6051 18.7322 28.4344 18.7353 28.2696 18.7729C27.6405 18.8844 27.2831 19.4133 27.0237 20.3138C26.9934 20.4185 26.5471 20.5622 26.6769 20.6952C26.7683 20.7888 27.3764 20.6952 27.4875 20.7602C27.6741 20.8681 28.0603 21.3831 28.7058 21.2683V21.2677Z" fill="#262128"/>
<path d="M27.1212 20.3958C27.3727 20.1081 27.3701 19.1685 28.2381 19.0144C28.377 18.9913 28.5191 18.996 28.6561 19.0285C28.7932 19.0609 28.9225 19.1203 29.0366 19.2034C29.1507 19.2864 29.2473 19.3914 29.3209 19.5122C29.3945 19.6331 29.4435 19.7674 29.4652 19.9075C29.5109 20.1652 29.4644 20.431 29.3339 20.6575C29.2035 20.884 28.9975 21.0567 28.7525 21.1448C27.984 21.3837 27.5671 20.664 27.3721 20.6766C27.177 20.6893 26.8086 20.7534 27.1212 20.3958Z" fill="#FF3232"/>
<path d="M28.7338 21.1267C29.3265 21.0213 29.7194 20.437 29.6114 19.8215C29.5034 19.2061 28.9354 18.7926 28.3427 18.898C27.75 19.0034 27.3571 19.5878 27.4651 20.2032C27.5731 20.8187 28.1411 21.2322 28.7338 21.1267Z" fill="#FF3232"/>
<path d="M28.5539 20.6849C28.9118 20.6213 29.149 20.2685 29.0838 19.8969C29.0186 19.5254 28.6757 19.2757 28.3178 19.3394C27.96 19.403 27.7228 19.7558 27.788 20.1274C27.8532 20.4989 28.1961 20.7486 28.5539 20.6849Z" fill="#970121"/>
<path d="M28.5239 20.5155C28.7917 20.4679 28.9693 20.2039 28.9205 19.9258C28.8717 19.6477 28.615 19.4609 28.3472 19.5085C28.0794 19.5561 27.9019 19.8202 27.9507 20.0982C27.9994 20.3763 28.2561 20.5632 28.5239 20.5155Z" fill="#DA2020"/>
<path d="M25.1307 18.6016C25.1537 18.4615 25.5789 19.2242 25.9745 19.323C26.3701 19.4218 26.7615 19.3347 26.1185 19.7456C25.4756 20.1565 24.8136 20.5405 25.1307 18.6016Z" fill="#262128"/>
<path d="M29.4085 30.7075C29.4828 29.6194 28.3752 27.5541 28.5366 27.518C28.6981 27.4819 29.9662 29.8444 29.9662 30.8951C29.9648 31.0325 29.9526 31.1696 29.9297 31.305C29.5994 31.7303 29.2119 32.1072 28.7785 32.425C29.1029 31.9019 29.3173 31.3173 29.4085 30.7075Z" fill="#C68032"/>
</g>
<defs>
<clipPath id="clip0_54_806">
<rect width="31" height="33" fill="white" transform="translate(7 6)"/>
</clipPath>
</defs>
</svg>
